<svg width="1000" height="1000" viewBox="0 0 1000 1000" fill="none"
  xmlns="http://www.w3.org/2000/svg">
  <path d="M500 0C223.853 0 0 223.868 0 500C0 622.826 44.3126 735.283 117.787 822.322C123.265 820.946 129.637 818.955 136.954 816.308C149.869 811.638 162.069 805.364 173.565 797.456C200.826 779.533 219.852 758.349 230.621 733.938C241.391 709.55 251.433 674.02 260.771 627.351L299.528 392.636H237.087C210.514 392.636 189.882 400.178 175.17 415.255C160.448 430.328 150.584 449.704 145.565 473.388L92.8123 466.927C92.0853 462.619 91.7315 456.535 91.7315 448.627C91.7315 416.332 99.0871 387.978 113.81 363.567C128.506 339.183 148.263 320.156 173.024 306.51C197.789 292.88 224.875 286.053 254.306 286.053H638.668C669.533 286.053 691.056 283.895 703.267 279.588C715.467 275.284 723.729 264.165 728.032 246.215H785.101C782.943 284.972 778.639 313.882 772.174 332.881C765.724 351.908 751.891 366.631 730.73 377.034C709.542 387.442 675.983 392.636 630.057 392.636H609.6L598.831 724.246C598.115 752.964 601.342 774.312 608.519 788.308C615.7 802.3 625.753 809.306 638.668 809.306C656.603 809.306 672.756 804.462 687.129 794.769C701.475 785.081 715.117 769.118 728.032 746.865L768.947 782.395C732.336 854.89 677.791 891.124 605.296 891.124C570.843 891.124 545.001 881.085 527.782 860.99C510.547 840.898 501.936 811.464 501.936 772.695C501.936 759.78 502.29 749.738 503.017 742.561L536.389 392.636H371.658L347.973 645.651C342.227 703.085 332.9 747.23 319.985 778.079C307.059 808.952 288.044 835.148 262.917 856.67C252.16 866.013 240.123 873.205 226.858 878.208C215.899 882.349 202.587 886.244 187.013 889.899C272.687 958.767 381.521 1000 500 1000C776.147 1000 1000 776.147 1000 500C1000 223.868 776.147 0 500 0Z" fill="#FC625E"/>
</svg>

